# File created by Blade
# Date/Time:  Wed Apr 08 17:35:25 2015
# Frame Rate: 120.000 fps
#------------------------------------------------------
:FULLY-SPECIFIED
:DEGREES
1382
root 8.844602 37.082040 4.225061 152.480678 -72.886026 -113.540627
Spine -36.066575 1.351294 12.276337
Head 37.377581 -3.654340 11.852873
LeftShoulder -9.494794 24.178875 12.904046
LeftArm 23.157701 29.914682 -74.049556
LeftForeArm 20.137211 -0.000000 26.491506
LeftHand -12.933720 -0.000000 -10.016912
LeftHandThumb1 -26.253704 0.000000 33.147579
RightShoulder -40.655593 -52.497446 21.443938
RightArm 56.280637 -22.526702 45.257671
RightForeArm 3.947698 -0.000000 24.440423
RightHand 0.850002 -0.000000 18.898876
RightHandThumb1 -24.326973 -0.000000 -32.862282
LeftUpLeg -50.676355 16.472609 -5.003044
LeftLeg 22.424427 -0.000000 -0.000000
LeftFoot -12.814202 19.455713 -2.475081
LeftToeBase -2.185681 -0.000000 0.000000
RightUpLeg -126.062137 -3.314155 34.623885
RightLeg 86.476685 -0.000000 -0.000000
RightFoot -22.081581 -33.068770 10.733831
RightToeBase -26.785638 -0.000000 0.000000
1383
root 8.839644 37.084193 4.226588 152.144599 -72.877155 -113.290209
Spine -35.963141 1.355197 12.340369
Head 37.475868 -3.727600 11.899227
LeftShoulder -9.467118 24.199530 12.894788
LeftArm 23.173090 29.935829 -74.052201
LeftForeArm 20.142698 -0.000000 26.508956
LeftHand -12.905077 -0.000000 -10.058351
LeftHandThumb1 -26.253704 0.000000 33.147579
RightShoulder -40.635955 -52.467728 21.416914
RightArm 56.362393 -22.514872 45.168312
RightForeArm 3.497920 -0.000000 24.515439
RightHand 0.827132 -0.000000 18.912134
RightHandThumb1 -24.326973 -0.000000 -32.862282
LeftUpLeg -50.513554 16.322979 -4.792857
LeftLeg 22.378346 -0.000000 -0.000000
LeftFoot -12.809703 19.595291 -2.488228
LeftToeBase -2.203954 -0.000000 0.000000
RightUpLeg -125.804797 -4.050560 33.572709
RightLeg 86.336113 -0.000000 -0.000000
RightFoot -22.065513 -33.719708 10.618110
RightToeBase -27.514828 -0.000000 0.000000
1384
root 8.823684 37.073467 4.222972 151.644853 -72.868629 -113.160393
Spine -35.546037 1.313809 12.351854
Head 37.542622 -3.821440 11.982987
LeftShoulder -9.418445 24.155819 12.893793
LeftArm 23.163248 29.928573 -74.060507
LeftForeArm 20.171228 -0.000000 26.512722
LeftHand -12.862834 -0.000000 -10.128330
LeftHandThumb1 -26.253704 0.000000 33.147579
RightShoulder -40.559669 -52.399993 21.386917
RightArm 56.423175 -22.495938 45.101912
RightForeArm 3.054511 0.000000 24.588741
RightHand 0.637946 -0.000000 18.945386
RightHandThumb1 -24.326973 -0.000000 -32.862282
LeftUpLeg -50.168234 16.459453 -4.733770
LeftLeg 22.467194 -0.000000 -0.000000
LeftFoot -12.902016 19.466803 -2.382927
LeftToeBase -2.246884 -0.000000 0.000000
RightUpLeg -125.324736 -4.939373 32.437572
RightLeg 86.338492 -0.000000 -0.000000
RightFoot -22.204389 -34.124433 10.598797
RightToeBase -26.940811 -0.000000 0.000000
1385
root 8.810944 37.067435 4.220989 151.267671 -72.865414 -113.038495
Spine -35.263655 1.288777 12.349716
Head 37.601364 -3.923174 12.069959
LeftShoulder -9.384469 24.124164 12.910110
LeftArm 23.132371 29.923375 -74.085080
LeftForeArm 20.219128 0.000000 26.543975
LeftHand -12.866710 -0.000000 -10.242491
LeftHandThumb1 -26.253704 0.000000 33.147579
RightShoulder -40.545275 -52.373993 21.423192
RightArm 56.568937 -22.507694 44.854840
RightForeArm 2.801595 -0.000000 24.650258
RightHand 0.531124 -0.000000 19.089941
RightHandThumb1 -24.326973 -0.000000 -32.862282
LeftUpLeg -49.889184 16.460472 -4.612619
LeftLeg 22.498016 -0.000000 -0.000000
LeftFoot -12.958034 19.469241 -2.368929
LeftToeBase -2.307962 -0.000000 0.000000
RightUpLeg -124.912741 -5.772710 31.230842
RightLeg 86.369314 -0.000000 -0.000000
RightFoot -22.242553 -34.496442 10.652730
RightToeBase -27.103458 -0.000000 0.000000
1386
root 8.800101 37.062172 4.219374 150.969093 -72.869743 -112.957186
Spine -35.026332 1.281494 12.317339
Head 37.651941 -4.049173 12.150293
LeftShoulder -9.343106 24.086127 12.939435
LeftArm 23.102795 29.935338 -74.094058
LeftForeArm 20.230575 -0.000000 26.565480
LeftHand -12.798580 -0.000000 -10.309568
LeftHandThumb1 -26.253704 0.000000 33.147579
RightShoulder -40.500890 -52.330811 21.412697
RightArm 56.664932 -22.533466 44.721473
RightForeArm 2.566437 -0.000000 24.668523
RightHand 0.373353 0.000000 19.236336
RightHandThumb1 -24.326973 -0.000000 -32.862282
LeftUpLeg -49.636066 16.429297 -4.492296
LeftLeg 22.513831 -0.000000 -0.000000
LeftFoot -13.007495 19.487412 -2.349255
LeftToeBase -2.305026 -0.000000 0.000000
RightUpLeg -124.507420 -6.565445 30.001185
RightLeg 86.456687 -0.000000 -0.000000
RightFoot -22.246060 -34.773367 10.698160
RightToeBase -26.950303 -0.000000 0.000000
